#!OML:ASF F:\VICON\USERDATA\INSTALL\rory3\rory3.ASF
:FULLY-SPECIFIED
:DEGREES
272
root 0.461547 22.9319 0.942001 -2.77594 -0.0160137 2.3467
lowerback 10.5156 0.0487555 0.103414
upperback 0.805486 0.0826891 0.106591
thorax -5.05815 0.0396404 0.0407734
lowerneck -16.1485 -1.81677 -5.1757
upperneck 10.2807 -2.13449 5.9971
head 5.86791 -0.774257 2.54471
rclavicle 1.08586e-014 -3.57812e-015
rhumerus -9.88758 8.01694 -64.2107
rradius 37.3632
rwrist 14.8028
rhand -25.0664 1.59046
rfingers 7.12502
rthumb 1.44745 -28.3844
lclavicle 1.08586e-014 -3.57812e-015
lhumerus -17.8066 5.97991 73.1398
lradius 33.8043
lwrist 2.67967
lhand -18.088 26.778
lfingers 7.12502
lthumb 8.18536 56.5995
rfemur -12.2887 16.5329 15.6037
rtibia 24.2118
rfoot 14.9566 -17.8854
rtoes -3.06918
lfemur -13.282 -5.69129 -18.2808
ltibia 22.9963
lfoot 20.0949 6.95291
ltoes -3.94945
273
root 0.460365 22.8267 1.12717 -2.89463 -0.0861536 2.28876
lowerback 10.8555 0.0453741 0.100281
upperback 0.957934 0.0799368 0.139636
thorax -5.08832 0.0386749 0.0772187
lowerneck -16.0718 -1.82203 -5.22347
upperneck 10.0621 -2.14452 6.1335
head 5.789 -0.772494 2.59401
rclavicle -7.95139e-016 -1.19271e-015
rhumerus -10.8238 8.45087 -64.6595
rradius 36.4567
rwrist 14.1779
rhand -24.7585 1.168
rfingers 7.12502
rthumb 1.74478 -28.8046
lclavicle -7.95139e-016 -1.19271e-015
lhumerus -18.7553 5.63878 73.5256
lradius 32.2421
lwrist 1.44603
lhand -17.3423 25.7349
lfingers 7.12502
lthumb 8.90503 55.5269
rfemur -12.6363 16.7819 15.4245
rtibia 22.9946
rfoot 14.3904 -18.5517
rtoes -2.99371
lfemur -13.8627 -6.31124 -18.0021
ltibia 22.092
lfoot 19.7043 7.92839
ltoes -4.04252
274
root 0.457063 22.7032 1.31344 -3.01026 -0.0603295 2.40481
lowerback 11.1356 0.0250604 -0.0586845
upperback 1.13388 0.0309091 0.0888379
thorax -5.0601 0.017327 0.121141
lowerneck -15.9632 -1.81037 -5.11994
upperneck 9.87487 -2.1405 6.07469
head 5.70992 -0.773542 2.55758
rclavicle -4.74598e-015 3.97569e-015
rhumerus -11.6433 8.69665 -65.1583
rradius 35.4777
rwrist 14.0268
rhand -23.469 -1.13416
rfingers 7.12502
rthumb 2.99017 -31.0929
lclavicle -4.74598e-015 3.97569e-015
lhumerus -19.5779 5.38639 73.8585
lradius 30.6873
lwrist 0.160353
lhand -16.9934 24.5077
lfingers 7.12502
lthumb 9.24167 54.2851
rfemur -12.9804 16.9948 15.0252
rtibia 21.7706
rfoot 13.6865 -19.5322
rtoes -2.24146
lfemur -14.4524 -6.82853 -17.9113
ltibia 21.2125
lfoot 19.7049 9.00088
ltoes -2.1558
275
root 0.451293 22.5692 1.49892 -3.05493 -0.0446959 2.5827
lowerback 11.3546 0.0230115 -0.304866
upperback 1.29509 -0.00615646 0.0219691
thorax -5.01286 0.00325168 0.195826
lowerneck -15.9524 -1.80553 -4.98222
upperneck 9.77017 -2.14239 5.94349
head 5.67211 -0.779784 2.49233
rclavicle -1.05853e-014 0
rhumerus -12.4644 8.9762 -65.6615
rradius 34.5399
rwrist 13.7603
rhand -22.5444 -2.82461
rfingers 7.12502
rthumb 3.88302 -32.769
lclavicle -1.05853e-014 0
lhumerus -20.4171 5.11088 74.2025
lradius 29.3132
lwrist -1.00889
lhand -17.2106 23.7631
lfingers 7.12502
lthumb 9.03211 53.5498
rfemur -13.3901 17.2037 14.5515
rtibia 20.5402
rfoot 13.2487 -20.5073
rtoes -3.1121
lfemur -15.1431 -7.20792 -17.8764
ltibia 20.3913
lfoot 19.7765 9.78578
ltoes -1.12869
276
root 0.448203 22.4189 1.68773 -3.09447 -0.156509 2.76935
lowerback 11.5235 0.0680058 -0.525932
upperback 1.42385 0.0207173 -0.0640277
thorax -4.97197 0.0197486 0.226508
lowerneck -15.8048 -1.79065 -4.82336
upperneck 9.56518 -2.14562 5.87602
head 5.58097 -0.783635 2.44362
rclavicle 7.55382e-015 2.78299e-015
rhumerus -13.4122 9.29432 -66.2267
rradius 33.7431
rwrist 13.4398
rhand -22.9007 -1.76812
rfingers 7.12502
rthumb 3.53897 -31.7185
lclavicle 7.55382e-015 2.78299e-015
lhumerus -21.3935 4.76688 74.5527
lradius 28.0948
lwrist -2.23599
lhand -17.4712 23.5118
lfingers 7.12502
lthumb 8.78068 53.3092
rfemur -13.8903 17.4393 14.054
rtibia 19.4381
rfoot 12.9327 -21.362
rtoes -4.30716
lfemur -15.7476 -7.45517 -17.856
ltibia 19.5209
lfoot 20.1131 10.5516
ltoes -1.69266
277
root 0.444436 22.2557 1.87864 -3.14212 -0.274129 2.87852
lowerback 11.6671 0.104074 -0.688365
upperback 1.51993 0.0445219 -0.116009
thorax -4.95124 0.0338319 0.260069
lowerneck -15.5868 -1.78405 -4.73629
upperneck 9.36829 -2.15313 5.85288
head 5.48249 -0.790117 2.42062
rclavicle 1.38901e-014 2.38542e-015
rhumerus -14.3838 9.55538 -66.8148
rradius 32.8929
rwrist 13.5057
rhand -23.4706 -0.696566
rfingers 7.12502
rthumb 2.98863 -30.6554
lclavicle 1.38901e-014 2.38542e-015
lhumerus -22.4784 4.43872 74.9033
lradius 27.0397
lwrist -3.22591
lhand -17.8089 23.6393
lfingers 7.12502
lthumb 8.4548 53.4501
rfemur -14.4056 17.7373 13.6224
rtibia 18.4631
rfoot 12.4993 -22.4835
rtoes -4.17603
lfemur -16.2844 -7.71749 -17.7184
ltibia 18.6136
lfoot 20.4862 11.7532
ltoes -0.828428
278
root 0.440006 22.0842 2.07144 -3.25929 -0.410766 3.09243
lowerback 11.8494 0.177301 -0.952815
upperback 1.60719 0.101594 -0.205912
thorax -4.96171 0.0658848 0.306123
lowerneck -15.5177 -1.85011 -4.7059
upperneck 9.4073 -2.25145 5.84149
head 5.48838 -0.838589 2.40312
rclavicle -7.77745e-015 3.97569e-016
rhumerus -15.4802 9.81275 -67.4095
rradius 32.0508
rwrist 13.8722
rhand -24.0548 0.0247993
rfingers 7.12502
rthumb 2.42441 -29.9412
lclavicle -7.77745e-015 3.97569e-016
lhumerus -23.571 4.02653 75.2574
lradius 26.1276
lwrist -3.89103
lhand -17.9316 23.293
lfingers 7.12502
lthumb 8.3363 53.1085
rfemur -14.8274 18.0541 13.0995
rtibia 17.5681
rfoot 12.2222 -23.6347
rtoes -3.7943
lfemur -16.7088 -7.91143 -17.7054
ltibia 17.7343
lfoot 20.798 12.8265
ltoes -0.189405
